<svg version="1.1" id="Layer_1" xmlns="http://www.w3.org/2000/svg" xmlns:xlink="http://www.w3.org/1999/xlink" x="0px" y="0px"
	 width="100%" viewBox="0 0 740 464" enable-background="new 0 0 740 464" xml:space="preserve">
<path fill="#292929" opacity="1.000000" stroke="none" 
	d="
M689.000000,465.000000 
	C475.973145,465.000000 262.946289,465.000000 49.462955,464.584381 
	C50.801666,454.231110 52.292000,444.226746 54.448910,434.368225 
	C61.026276,404.305389 72.708900,376.069855 87.241165,349.140411 
	C94.451782,335.778564 104.017807,323.689819 112.471367,310.993896 
	C113.463837,309.503326 114.158020,307.814117 115.327240,306.288086 
	C121.269005,308.876038 126.736229,311.778595 132.504257,313.839111 
	C151.495438,320.623444 171.189575,321.372498 191.090912,320.114929 
	C211.685242,318.813538 230.893845,312.743744 249.290421,303.682495 
	C252.598587,302.053040 254.347443,300.242462 253.324173,296.077850 
	C251.819763,289.955048 251.228165,283.613525 249.891678,277.442322 
	C248.429153,270.689026 245.820679,264.369415 240.556000,259.594757 
	C235.626862,255.124390 230.627640,250.716919 225.458069,246.530212 
	C220.539108,242.546463 215.359955,238.883972 209.136276,234.209854 
	C209.136276,244.278534 209.226990,252.741638 209.107544,261.201782 
	C209.012100,267.961121 206.498413,271.192047 200.393188,273.650665 
	C191.695633,277.153229 182.627594,276.900757 173.842911,275.219238 
	C167.008972,273.911133 160.548660,270.651062 153.979431,267.901001 
	C155.705032,265.520538 157.090805,263.145569 159.092773,261.537964 
	C166.321243,255.733383 173.576569,249.931015 181.149292,244.592422 
	C201.822433,230.018402 223.535110,217.212448 247.176682,208.021927 
	C254.527023,205.164536 262.267456,203.310608 269.905090,201.460693 
	C269.980896,235.638687 269.980896,269.353271 269.980896,302.916504 
	C280.853973,302.916504 290.962891,302.916504 301.524475,302.916504 
	C301.524475,300.865479 301.524597,299.062714 301.524475,297.259979 
	C301.522064,255.626816 301.724091,213.991714 301.326965,172.362320 
	C301.256226,164.946976 304.385895,160.328415 309.673828,156.510422 
	C319.648376,149.308640 330.874664,154.229004 332.447266,166.382156 
	C332.851288,169.504562 332.973145,172.682388 332.975647,175.834961 
	C333.007812,216.468903 332.994812,257.102875 332.993256,297.736847 
	C332.993195,299.500671 332.993256,301.264465 332.993256,302.964478 
	C343.772095,302.964478 353.893036,302.964478 364.526611,302.964478 
	C364.526611,300.959778 364.526764,299.165131 364.526611,297.370483 
	C364.523560,261.732483 364.515564,226.094513 364.531372,190.456528 
	C364.532166,188.638840 364.737427,186.821243 365.322968,185.002686 
	C370.776886,184.999802 375.755310,184.997833 380.774902,185.414337 
	C380.558594,190.973129 380.076813,196.113724 380.082947,201.253769 
	C380.107819,222.180695 378.912476,243.175049 382.989868,263.911469 
	C384.922791,273.741699 387.704376,283.292511 394.221252,291.195129 
	C405.036346,304.309937 419.683899,306.213104 435.307251,304.611664 
	C446.608032,303.453308 455.107605,297.528809 461.373627,288.222565 
	C471.016266,273.901367 473.449615,257.584686 474.118835,240.885315 
	C474.624451,228.268600 474.623566,215.631577 475.254761,203.004639 
	C480.420715,204.336761 485.180023,205.667831 490.037598,207.458603 
	C490.135803,239.508987 490.135803,271.099670 490.135803,302.932343 
	C500.857849,302.932343 511.091797,302.932343 521.838501,302.932343 
	C521.838501,300.970093 521.833923,299.185303 521.839233,297.400513 
	C521.912292,272.933289 521.986694,248.466080 522.431885,224.011444 
	C523.601746,224.225327 524.533875,224.226547 525.179504,224.657257 
	C540.317993,234.756317 555.447998,244.868591 570.526489,255.056870 
	C575.765747,258.596954 580.863586,262.346375 586.257202,266.302307 
	C588.578552,275.358246 591.432251,283.766693 597.010254,291.036163 
	C603.351929,299.301086 612.189392,303.026245 622.055542,305.399658 
	C628.455078,315.057709 634.972412,324.264069 641.107910,333.718170 
	C652.697510,351.575958 662.195618,370.526520 669.958069,390.350311 
	C679.393860,414.447357 685.440491,439.405670 689.000000,465.000000 
M496.613892,356.392609 
	C496.713043,351.796082 494.429626,348.324249 490.175812,347.523590 
	C485.102753,346.568787 479.792542,346.874298 474.379822,346.624329 
	C474.379822,357.348846 474.453461,367.153198 474.342834,376.955444 
	C474.299805,380.765656 476.301208,380.193970 479.109741,379.648163 
	C479.109741,374.954285 479.109741,370.552582 479.109741,366.602081 
	C483.754120,364.664612 485.607727,367.100189 487.153442,370.434143 
	C488.194153,372.678894 489.375305,374.953491 490.955872,376.824158 
	C492.314972,378.432648 494.328857,379.487885 496.053192,380.787750 
	C496.425171,380.343414 496.797119,379.899109 497.169067,379.454773 
	C494.584625,374.893799 492.000214,370.332825 490.370117,367.456055 
	C492.914490,363.242828 494.749451,360.204285 496.613892,356.392609 
M323.015564,358.525696 
	C323.015564,354.732330 323.015564,350.938965 323.015564,346.846649 
	C321.397430,346.944397 320.192505,347.017151 318.592041,347.113831 
	C318.592041,351.772827 318.592041,356.039032 318.592041,360.413940 
	C313.291901,360.413940 308.421814,360.413940 303.180054,360.413940 
	C303.180054,355.747437 303.180054,351.462860 303.180054,346.893341 
	C301.556061,346.966644 300.328064,347.022064 299.192139,347.073364 
	C299.192139,358.221802 299.192139,369.018280 299.192139,380.072571 
	C300.636780,379.923157 301.847778,379.797913 303.424194,379.634857 
	C303.424194,374.540710 303.424194,369.779327 303.424194,364.882111 
	C308.748383,364.882111 313.659668,364.882111 318.827332,364.882111 
	C318.827332,370.032501 318.827332,374.845306 318.827332,379.738953 
	C320.325409,379.738953 321.549347,379.738953 323.015594,379.738953 
	C323.015594,372.820801 323.015594,366.169403 323.015564,358.525696 
M358.970520,366.492523 
	C358.970520,370.920898 358.970520,375.349274 358.970520,379.978607 
	C367.170105,379.808655 375.618561,381.926453 380.441071,373.455719 
	C384.305908,366.667114 384.472260,359.302917 380.204773,352.655823 
	C375.123962,344.741791 366.762878,347.293640 358.970520,346.700745 
	C358.970520,353.263062 358.970520,359.379578 358.970520,366.492523 
M452.031128,373.433960 
	C452.031128,370.530334 452.031128,367.626740 452.031128,364.562866 
	C455.937836,364.562866 459.105347,364.690948 462.249084,364.474335 
	C463.051605,364.419037 463.778900,363.271698 464.540741,362.626129 
	C463.765900,362.014832 463.020416,360.925781 462.211060,360.876038 
	C458.928894,360.674438 455.627136,360.792267 452.209412,360.792267 
	C452.209412,357.091187 452.209412,353.792816 452.209412,350.207947 
	C455.204529,350.207947 458.021820,350.208160 460.839111,350.207886 
	C466.640137,350.207336 466.640137,350.207245 466.578735,347.144104 
	C460.343536,347.144104 454.116028,347.144104 448.048828,347.144104 
	C448.048828,358.259369 448.048828,369.021179 448.048828,379.823853 
	C454.592285,379.823853 460.873718,379.823853 467.155182,379.823853 
	C467.403595,379.386536 467.652008,378.949249 467.900421,378.511932 
	C466.804993,377.818481 465.751038,376.621216 464.606293,376.526947 
	C461.299225,376.254669 457.945587,376.566925 454.632782,376.332184 
	C453.726715,376.267944 452.899963,375.085205 452.031128,373.433960 
M336.782257,359.592957 
	C336.782257,356.533844 336.782257,353.474762 336.782257,350.245361 
	C341.319244,350.245361 345.147247,350.337646 348.964508,350.176575 
	C349.852936,350.139099 350.704956,349.239441 351.573730,348.736450 
	C350.681274,348.075928 349.806580,346.873749 348.893402,346.843750 
	C343.427612,346.664398 337.953003,346.754883 332.430664,346.754883 
	C332.430664,358.055084 332.430664,368.931915 332.430664,379.889404 
	C339.059479,379.889404 345.347046,379.889404 351.634644,379.889404 
	C351.879974,378.924103 352.125336,377.958832 352.370667,376.993530 
	C347.568420,375.512146 341.945435,377.069397 336.903137,376.039246 
	C336.903137,372.227692 336.903137,368.665131 336.903137,364.622284 
	C339.629761,364.622284 342.085754,364.693176 344.535645,364.601349 
	C346.764771,364.517792 350.119080,365.582703 348.531006,360.468170 
	C344.884369,360.468170 341.096832,360.468170 336.782257,359.592957 
M409.974243,355.564087 
	C409.818451,360.538177 409.909760,365.536285 409.428619,370.478699 
	C409.044586,374.423767 406.384491,376.792175 402.404785,376.897400 
	C398.214905,377.008148 395.494537,374.801514 394.842468,370.534454 
	C394.492950,368.247040 394.270813,365.921082 394.234100,363.608704 
	C394.147461,358.149933 394.206268,352.688812 394.206268,347.076904 
	C392.617218,347.076904 391.395630,347.076904 390.129364,347.076904 
	C390.129364,354.476624 389.870728,361.618134 390.198944,368.732574 
	C390.557831,376.511658 395.149536,380.773285 402.454071,380.826660 
	C408.818054,380.873169 413.236908,376.828888 413.713470,369.405060 
	C414.188141,362.010315 413.817505,354.561279 413.817505,347.021545 
	C412.486755,347.021545 411.394836,347.021545 409.974243,347.021545 
	C409.974243,349.687195 409.974243,352.147034 409.974243,355.564087 
M244.656342,349.220306 
	C240.445648,354.929352 241.422318,359.736542 247.633011,363.090759 
	C250.388702,364.579071 253.563263,365.406891 256.065338,367.205505 
	C257.510803,368.244598 258.947479,370.802673 258.652649,372.345459 
	C258.338287,373.990479 256.026794,376.363312 254.500870,376.429535 
	C251.586014,376.556061 248.631485,375.149475 245.650482,374.622070 
	C244.069946,374.342438 242.399216,374.572540 240.769211,374.572540 
	C240.636597,375.435669 240.503983,376.298798 240.371368,377.161926 
	C244.309967,378.382263 248.176163,380.157532 252.205399,380.683197 
	C257.293427,381.346954 262.223694,377.537567 263.107605,373.270630 
	C264.179016,368.098663 262.178009,364.819519 256.421204,362.242950 
	C254.458405,361.364410 252.547562,360.367920 250.573502,359.516937 
	C247.856339,358.345551 245.516327,356.253113 247.010773,353.519104 
	C247.981812,351.742676 251.064056,350.766876 253.385880,350.220551 
	C254.686111,349.914520 256.324219,351.409149 257.884705,351.733856 
	C259.238708,352.015594 260.697754,351.792480 263.428528,351.792480 
	C257.316010,345.341553 251.537628,344.755066 244.656342,349.220306 
M275.741943,378.914246 
	C280.702515,381.760620 285.604523,381.347321 290.241608,378.305328 
	C291.168762,377.697083 291.411072,376.044891 291.969177,374.874023 
	C290.708191,374.888458 289.436829,374.804901 288.188232,374.936554 
	C285.082825,375.264130 281.613251,376.773621 278.963928,375.858093 
	C272.814697,373.733063 270.446045,361.992767 274.197662,355.174255 
	C277.192047,349.731964 282.862213,348.800476 289.786926,352.791382 
	C290.448059,352.006256 291.140656,351.183807 291.825745,350.370270 
	C286.585693,345.578430 282.706085,345.135803 276.766083,347.469666 
	C266.368652,351.554901 264.557495,371.966919 275.741943,378.914246 
M427.207062,373.672791 
	C427.207062,364.894287 427.207062,356.115814 427.207062,347.074402 
	C425.686462,347.074402 424.474457,347.074402 423.296692,347.074402 
	C423.296692,358.121307 423.296692,368.974884 423.296692,379.842896 
	C429.557007,379.842896 435.495209,379.842896 443.264465,379.842896 
	C441.396698,378.091278 440.639343,376.820190 439.621185,376.556580 
	C438.064423,376.153595 436.295013,376.651917 434.674835,376.395294 
	C432.167450,375.998169 429.709747,375.287018 427.207062,373.672791 
z"/>
<path fill="#242424" opacity="1.000000" stroke="none" 
	d="
M741.000000,115.000015 
	C741.000000,149.354233 741.000000,183.708450 740.657593,218.479248 
	C739.614075,218.477509 738.743347,218.205307 738.237549,217.618561 
	C732.406555,210.854706 726.993286,203.689362 720.769287,197.313782 
	C705.055420,181.217224 689.025818,165.427048 672.967102,149.672714 
	C671.792419,148.520248 669.368774,148.640793 667.308289,147.928772 
	C662.755432,139.427521 655.086731,135.479767 646.923828,131.768951 
	C644.560486,128.922165 642.584412,125.924904 639.846802,124.025154 
	C616.024780,107.494217 591.136963,92.859001 564.713379,80.742889 
	C529.624817,64.653587 493.176331,53.056267 455.273315,46.083881 
	C444.059448,44.021053 432.630035,43.063854 421.270508,41.876274 
	C407.452026,40.431625 393.617676,38.467861 379.763214,38.216637 
	C364.356842,37.937260 348.914246,39.222309 333.498810,40.041176 
	C324.083344,40.541321 314.687042,41.418274 305.286987,42.184952 
	C302.151154,42.440716 298.961578,42.581043 295.913544,43.282459 
	C274.420227,48.228558 252.894791,53.061085 231.524323,58.498665 
	C225.385757,60.060577 219.722748,63.491379 213.447021,66.054031 
	C196.683716,62.503822 180.174194,60.969448 163.481995,62.998310 
	C125.387924,67.628464 96.137383,85.731834 78.503929,120.384560 
	C73.582558,130.055878 70.698456,140.763885 66.506073,150.999222 
	C64.773026,151.491409 63.132786,151.646927 62.095989,152.519470 
	C43.266319,168.366180 26.096241,185.852875 10.406823,204.820892 
	C7.630317,208.177628 4.153457,210.955063 1.000003,214.000000 
	C1.000000,143.040298 1.000000,72.080589 1.000000,1.000000 
	C186.687546,1.000000 372.375122,1.000000 558.612793,1.344510 
	C564.920471,4.453194 570.633118,7.316055 576.444641,9.961844 
	C590.293701,16.266886 604.584717,21.728170 617.981140,28.873037 
	C643.171875,42.308319 667.832764,56.766590 690.251404,74.608177 
	C705.275757,86.565163 719.892151,99.033897 734.758728,111.190979 
	C736.627686,112.719284 738.909485,113.742691 741.000000,115.000015 
z"/>
<path fill="#262626" opacity="1.000000" stroke="none" 
	d="
M667.525818,148.169479 
	C669.368774,148.640793 671.792419,148.520248 672.967102,149.672714 
	C689.025818,165.427048 705.055420,181.217224 720.769287,197.313782 
	C726.993286,203.689362 732.406555,210.854706 738.237549,217.618561 
	C738.743347,218.205307 739.614075,218.477509 740.657593,218.947906 
	C741.000000,300.879456 741.000000,382.758942 741.000000,465.000000 
	C723.980835,465.000000 706.959045,465.000000 689.468628,465.000000 
	C685.440491,439.405670 679.393860,414.447357 669.958069,390.350311 
	C662.195618,370.526520 652.697510,351.575958 641.107910,333.718170 
	C634.972412,324.264069 628.455078,315.057709 622.516663,305.309296 
	C634.157776,305.605988 645.286072,305.045685 655.359009,299.485107 
	C671.448181,290.603394 675.582703,269.753754 673.309570,251.992493 
	C665.864685,251.992493 658.396729,251.914429 650.934265,252.081650 
	C649.885803,252.105133 648.864258,253.329086 647.457642,253.983078 
	C643.901184,253.529617 642.089783,252.107208 641.786255,248.516541 
	C641.679260,247.250641 639.376221,246.180191 638.093567,245.001221 
	C636.720825,243.739380 634.480469,242.624054 634.198486,241.143860 
	C633.661011,238.322571 632.589966,237.342697 629.807373,236.797058 
	C628.335205,236.508408 627.254883,234.233276 625.992737,232.859451 
	C624.814453,231.576920 623.713501,229.318451 622.431824,229.209030 
	C618.883362,228.906082 617.720581,227.293289 618.460938,223.964706 
	C635.036377,223.860565 651.151794,223.816559 667.266846,223.875122 
	C670.087585,223.885361 671.450073,223.454193 672.163818,220.023422 
	C675.219666,205.333527 675.269287,190.509903 674.959717,175.659317 
	C674.756958,165.934006 672.230286,156.730759 667.525818,148.169479 
z"/>
<path fill="#262626" opacity="1.000000" stroke="none" 
	d="
M1.000003,214.468658 
	C4.153457,210.955063 7.630317,208.177628 10.406823,204.820892 
	C26.096241,185.852875 43.266319,168.366180 62.095989,152.519470 
	C63.132786,151.646927 64.773026,151.491409 66.522942,151.396011 
	C63.060944,167.572037 61.532898,183.614182 62.073383,199.813629 
	C62.308544,206.861771 63.422939,213.877548 64.040009,220.916626 
	C65.281364,235.077301 69.085739,248.546295 74.929184,261.457092 
	C83.580727,280.572205 97.391731,295.096283 114.990486,306.217010 
	C114.158020,307.814117 113.463837,309.503326 112.471367,310.993896 
	C104.017807,323.689819 94.451782,335.778564 87.241165,349.140411 
	C72.708900,376.069855 61.026276,404.305389 54.448910,434.368225 
	C52.292000,444.226746 50.801666,454.231110 49.003250,464.584381 
	C33.023438,465.000000 17.046875,465.000000 1.000000,465.000000 
	C1.000000,381.645782 1.000000,298.291565 1.000003,214.468658 
z"/>
<path fill="#242424" opacity="1.000000" stroke="none" 
	d="
M741.000000,114.531357 
	C738.909485,113.742691 736.627686,112.719284 734.758728,111.190979 
	C719.892151,99.033897 705.275757,86.565163 690.251404,74.608177 
	C667.832764,56.766590 643.171875,42.308319 617.981140,28.873037 
	C604.584717,21.728170 590.293701,16.266886 576.444641,9.961844 
	C570.633118,7.316055 564.920471,4.453194 559.081421,1.344510 
	C619.576904,1.000000 680.153748,1.000000 741.000000,1.000000 
	C741.000000,38.687134 741.000000,76.374908 741.000000,114.531357 
z"/>
<path fill="#262626" opacity="1.000000" stroke="none" 
	d="
M213.841690,66.065292 
	C219.722748,63.491379 225.385757,60.060577 231.524323,58.498665 
	C252.894791,53.061085 274.420227,48.228558 295.913544,43.282459 
	C298.961578,42.581043 302.151154,42.440716 305.286987,42.184952 
	C314.687042,41.418274 324.083344,40.541321 333.498810,40.041176 
	C348.914246,39.222309 364.356842,37.937260 379.763214,38.216637 
	C393.617676,38.467861 407.452026,40.431625 421.270508,41.876274 
	C432.630035,43.063854 444.059448,44.021053 455.273315,46.083881 
	C493.176331,53.056267 529.624817,64.653587 564.713379,80.742889 
	C591.136963,92.859001 616.024780,107.494217 639.846802,124.025154 
	C642.584412,125.924904 644.560486,128.922165 646.500977,131.777527 
	C638.866638,131.773376 631.588867,130.789413 624.382385,131.166626 
	C611.768555,131.826859 601.996399,138.021637 595.023560,148.558380 
	C584.989258,163.721298 582.901306,180.972763 583.168091,198.415390 
	C583.512817,220.952957 585.019653,243.472748 586.026001,266.000183 
	C580.863586,262.346375 575.765747,258.596954 570.526489,255.056870 
	C555.447998,244.868591 540.317993,234.756317 525.179504,224.657257 
	C524.533875,224.226547 523.601746,224.225327 522.337341,223.551224 
	C521.862854,204.266998 522.049683,185.452133 521.719666,166.646362 
	C521.627197,161.377411 524.006897,158.101242 527.768738,155.457840 
	C533.518738,151.417328 539.495789,153.660660 541.086426,160.500732 
	C541.867554,163.859619 542.005981,167.404526 542.112671,170.875168 
	C542.274475,176.138779 542.154968,181.411041 542.154968,187.008804 
	C548.689209,187.008804 554.661377,186.851730 560.619263,187.075531 
	C563.568848,187.186325 564.506775,186.023743 565.210510,183.308319 
	C567.758789,173.474350 568.633118,163.720596 567.165039,153.519592 
	C565.560425,142.369385 558.915894,133.425873 548.903748,131.185593 
	C538.098755,128.767899 525.611511,133.863998 520.169861,142.841263 
	C519.084290,144.632141 517.757690,146.276917 515.737061,149.123260 
	C514.780090,142.841843 514.050842,138.055298 513.279175,132.990448 
	C505.475128,132.990448 497.943268,132.990448 490.155151,132.990448 
	C490.155151,135.137344 490.160583,137.117310 490.154388,139.097244 
	C490.083710,161.731125 490.011292,184.365021 489.939362,206.998901 
	C485.180023,205.667831 480.420715,204.336761 475.122223,202.566254 
	C473.042297,189.132446 471.950439,176.063278 469.802582,163.170013 
	C468.375305,154.601974 463.950592,147.060333 457.549408,141.015625 
	C447.524384,131.548935 435.174866,130.095551 422.103119,130.953201 
	C404.126434,132.132675 393.476837,139.408020 387.161469,157.062317 
	C383.965424,165.996658 382.811157,175.661377 380.733765,184.995880 
	C375.755310,184.997833 370.776886,184.999802 365.189941,184.551056 
	C364.391205,177.279770 364.576141,170.423401 363.929382,163.646378 
	C362.739410,151.177628 359.460144,139.445084 346.842987,133.631882 
	C336.255768,128.753952 325.240173,129.716049 314.896210,134.431656 
	C309.581451,136.854553 305.043793,140.982086 300.765015,143.920349 
	C300.765015,122.393181 300.765015,100.252739 300.765015,78.002472 
	C290.685120,78.002472 280.581268,78.002472 269.993530,78.002472 
	C269.993530,79.950356 269.995728,81.741066 269.993225,83.531776 
	C269.938904,122.686943 269.884094,161.842117 269.829346,200.997284 
	C262.267456,203.310608 254.527023,205.164536 247.176682,208.021927 
	C223.535110,217.212448 201.822433,230.018402 181.149292,244.592422 
	C173.576569,249.931015 166.321243,255.733383 159.092773,261.537964 
	C157.090805,263.145569 155.705032,265.520538 153.643570,267.793427 
	C150.940964,266.435028 148.434875,265.046204 146.352707,263.183533 
	C129.241302,247.875900 123.907692,227.423447 122.143188,205.737778 
	C121.328499,195.725174 121.659943,185.577118 122.080917,175.515961 
	C122.723747,160.152466 126.003044,145.330841 133.577393,131.775223 
	C138.770599,122.481087 145.943176,115.310326 155.936768,110.830200 
	C169.095093,104.931335 182.521942,105.483238 196.067734,108.129326 
	C206.199722,110.108536 209.313950,114.456886 209.342697,125.040291 
	C209.362869,132.469849 209.346588,139.899490 209.346588,147.329102 
	C209.860031,147.602417 210.373474,147.875732 210.886932,148.149033 
	C220.778183,139.747025 230.643417,131.314117 240.572174,122.956657 
	C245.211517,119.051529 247.989288,114.096268 249.258636,108.255737 
	C250.555801,102.287224 252.056290,96.338432 252.899109,90.301613 
	C254.050522,82.054398 253.827255,82.007774 246.300735,78.219147 
	C244.676147,77.401375 243.014740,76.629623 241.308441,76.005859 
	C232.163651,72.662811 222.999283,69.373299 213.841690,66.065292 
z"/>
<path fill="#D93832" opacity="1.000000" stroke="none" 
	d="
M213.447021,66.054031 
	C222.999283,69.373299 232.163651,72.662811 241.308441,76.005859 
	C243.014740,76.629623 244.676147,77.401375 246.300735,78.219147 
	C253.827255,82.007774 254.050522,82.054398 252.899109,90.301613 
	C252.056290,96.338432 250.555801,102.287224 249.258636,108.255737 
	C247.989288,114.096268 245.211517,119.051529 240.572174,122.956657 
	C230.643417,131.314117 220.778183,139.747025 210.886932,148.149033 
	C210.373474,147.875732 209.860031,147.602417 209.346588,147.329102 
	C209.346588,139.899490 209.362869,132.469849 209.342697,125.040291 
	C209.313950,114.456886 206.199722,110.108536 196.067734,108.129326 
	C182.521942,105.483238 169.095093,104.931335 155.936768,110.830200 
	C145.943176,115.310326 138.770599,122.481087 133.577393,131.775223 
	C126.003044,145.330841 122.723747,160.152466 122.080917,175.515961 
	C121.659943,185.577118 121.328499,195.725174 122.143188,205.737778 
	C123.907692,227.423447 129.241302,247.875900 146.352707,263.183533 
	C148.434875,265.046204 150.940964,266.435028 153.586456,268.151001 
	C160.548660,270.651062 167.008972,273.911133 173.842911,275.219238 
	C182.627594,276.900757 191.695633,277.153229 200.393188,273.650665 
	C206.498413,271.192047 209.012100,267.961121 209.107544,261.201782 
	C209.226990,252.741638 209.136276,244.278534 209.136276,234.209854 
	C215.359955,238.883972 220.539108,242.546463 225.458069,246.530212 
	C230.627640,250.716919 235.626862,255.124390 240.556000,259.594757 
	C245.820679,264.369415 248.429153,270.689026 249.891678,277.442322 
	C251.228165,283.613525 251.819763,289.955048 253.324173,296.077850 
	C254.347443,300.242462 252.598587,302.053040 249.290421,303.682495 
	C230.893845,312.743744 211.685242,318.813538 191.090912,320.114929 
	C171.189575,321.372498 151.495438,320.623444 132.504257,313.839111 
	C126.736229,311.778595 121.269005,308.876038 115.327240,306.288086 
	C97.391731,295.096283 83.580727,280.572205 74.929184,261.457092 
	C69.085739,248.546295 65.281364,235.077301 64.040009,220.916626 
	C63.422939,213.877548 62.308544,206.861771 62.073383,199.813629 
	C61.532898,183.614182 63.060944,167.572037 66.896637,151.393112 
	C70.698456,140.763885 73.582558,130.055878 78.503929,120.384560 
	C96.137383,85.731834 125.387924,67.628464 163.481995,62.998310 
	C180.174194,60.969448 196.683716,62.503822 213.447021,66.054031 
z"/>
<path fill="#FBFCFC" opacity="1.000000" stroke="none" 
	d="
M269.905121,201.460693 
	C269.884094,161.842117 269.938904,122.686943 269.993225,83.531776 
	C269.995728,81.741066 269.993530,79.950356 269.993530,78.002472 
	C280.581268,78.002472 290.685120,78.002472 300.765015,78.002472 
	C300.765015,100.252739 300.765015,122.393181 300.765015,143.920349 
	C305.043793,140.982086 309.581451,136.854553 314.896210,134.431656 
	C325.240173,129.716049 336.255768,128.753952 346.842987,133.631882 
	C359.460144,139.445084 362.739410,151.177628 363.929382,163.646378 
	C364.576141,170.423401 364.391205,177.279770 364.714478,184.551971 
	C364.737427,186.821243 364.532166,188.638840 364.531372,190.456528 
	C364.515564,226.094513 364.523560,261.732483 364.526611,297.370483 
	C364.526764,299.165131 364.526611,300.959778 364.526611,302.964478 
	C353.893036,302.964478 343.772095,302.964478 332.993256,302.964478 
	C332.993256,301.264465 332.993195,299.500671 332.993256,297.736847 
	C332.994812,257.102875 333.007812,216.468903 332.975647,175.834961 
	C332.973145,172.682388 332.851288,169.504562 332.447266,166.382156 
	C330.874664,154.229004 319.648376,149.308640 309.673828,156.510422 
	C304.385895,160.328415 301.256226,164.946976 301.326965,172.362320 
	C301.724091,213.991714 301.522064,255.626816 301.524475,297.259979 
	C301.524597,299.062714 301.524475,300.865479 301.524475,302.916504 
	C290.962891,302.916504 280.853973,302.916504 269.980896,302.916504 
	C269.980896,269.353271 269.980896,235.638687 269.905121,201.460693 
z"/>
<path fill="#FBFCFC" opacity="1.000000" stroke="none" 
	d="
M380.774902,185.414337 
	C382.811157,175.661377 383.965424,165.996658 387.161469,157.062317 
	C393.476837,139.408020 404.126434,132.132675 422.103119,130.953201 
	C435.174866,130.095551 447.524384,131.548935 457.549408,141.015625 
	C463.950592,147.060333 468.375305,154.601974 469.802582,163.170013 
	C471.950439,176.063278 473.042297,189.132446 474.715576,202.565216 
	C474.623566,215.631577 474.624451,228.268600 474.118835,240.885315 
	C473.449615,257.584686 471.016266,273.901367 461.373627,288.222565 
	C455.107605,297.528809 446.608032,303.453308 435.307251,304.611664 
	C419.683899,306.213104 405.036346,304.309937 394.221252,291.195129 
	C387.704376,283.292511 384.922791,273.741699 382.989868,263.911469 
	C378.912476,243.175049 380.107819,222.180695 380.082947,201.253769 
	C380.076813,196.113724 380.558594,190.973129 380.774902,185.414337 
M411.840607,249.427399 
	C413.095001,257.087219 413.789703,264.896454 415.782410,272.359131 
	C417.352234,278.238068 422.448761,281.148499 427.743164,280.987244 
	C433.523468,280.811249 438.123779,277.718719 439.674438,271.544678 
	C441.277985,265.160187 442.568542,258.522736 442.689209,251.971863 
	C443.100037,229.666473 443.174011,207.346954 442.849091,185.040527 
	C442.746307,177.982651 441.417236,170.853455 439.870697,163.930862 
	C438.326691,157.019608 433.986237,153.653946 428.260101,153.527145 
	C421.846344,153.385117 416.991180,156.681152 415.118988,163.499481 
	C413.593597,169.054794 412.238617,174.855087 412.141327,180.569427 
	C411.756256,203.189224 411.895508,225.817932 411.840607,249.427399 
z"/>
<path fill="#FCFCFC" opacity="1.000000" stroke="none" 
	d="
M586.257202,266.302307 
	C585.019653,243.472748 583.512817,220.952957 583.168091,198.415390 
	C582.901306,180.972763 584.989258,163.721298 595.023560,148.558380 
	C601.996399,138.021637 611.768555,131.826859 624.382385,131.166626 
	C631.588867,130.789413 638.866638,131.773376 646.535156,132.135895 
	C655.086731,135.479767 662.755432,139.427521 667.308289,147.928772 
	C672.230286,156.730759 674.756958,165.934006 674.959717,175.659317 
	C675.269287,190.509903 675.219666,205.333527 672.163818,220.023422 
	C671.450073,223.454193 670.087585,223.885361 667.266846,223.875122 
	C651.151794,223.816559 635.036377,223.860565 618.015259,223.868347 
	C616.351929,224.965576 614.948303,226.058914 614.939270,227.163666 
	C614.865845,236.151184 614.731079,245.160599 615.279602,254.122650 
	C615.621094,259.701843 616.640686,265.349823 618.213318,270.715637 
	C620.197571,277.485748 625.398193,280.823090 632.390625,280.969727 
	C639.100647,281.110413 643.149353,278.638000 645.349609,271.198212 
	C646.975464,265.700867 647.059387,259.747528 647.830200,253.997345 
	C648.864258,253.329086 649.885803,252.105133 650.934265,252.081650 
	C658.396729,251.914429 665.864685,251.992493 673.309570,251.992493 
	C675.582703,269.753754 671.448181,290.603394 655.359009,299.485107 
	C645.286072,305.045685 634.157776,305.605988 622.462158,304.969421 
	C612.189392,303.026245 603.351929,299.301086 597.010254,291.036163 
	C591.432251,283.766693 588.578552,275.358246 586.257202,266.302307 
M646.525757,178.129547 
	C645.841980,173.719681 645.482544,169.228531 644.402588,164.917923 
	C642.528076,157.436142 637.657898,153.599579 630.759094,153.527084 
	C624.476746,153.461075 619.991089,157.191696 617.899780,164.501602 
	C614.345764,176.924469 614.826965,189.645798 614.927429,202.571518 
	C625.524597,202.571518 635.739014,202.571518 646.694580,202.571518 
	C646.694580,194.560333 646.694580,186.796844 646.525757,178.129547 
z"/>
<path fill="#FBFCFC" opacity="1.000000" stroke="none" 
	d="
M490.037598,207.458603 
	C490.011292,184.365021 490.083710,161.731125 490.154388,139.097244 
	C490.160583,137.117310 490.155151,135.137344 490.155151,132.990448 
	C497.943268,132.990448 505.475128,132.990448 513.279175,132.990448 
	C514.050842,138.055298 514.780090,142.841843 515.737061,149.123260 
	C517.757690,146.276917 519.084290,144.632141 520.169861,142.841263 
	C525.611511,133.863998 538.098755,128.767899 548.903748,131.185593 
	C558.915894,133.425873 565.560425,142.369385 567.165039,153.519592 
	C568.633118,163.720596 567.758789,173.474350 565.210510,183.308319 
	C564.506775,186.023743 563.568848,187.186325 560.619263,187.075531 
	C554.661377,186.851730 548.689209,187.008804 542.154968,187.008804 
	C542.154968,181.411041 542.274475,176.138779 542.112671,170.875168 
	C542.005981,167.404526 541.867554,163.859619 541.086426,160.500732 
	C539.495789,153.660660 533.518738,151.417328 527.768738,155.457840 
	C524.006897,158.101242 521.627197,161.377411 521.719666,166.646362 
	C522.049683,185.452133 521.862854,204.266998 521.966187,223.538635 
	C521.986694,248.466080 521.912292,272.933289 521.839233,297.400513 
	C521.833923,299.185303 521.838501,300.970093 521.838501,302.932343 
	C511.091797,302.932343 500.857849,302.932343 490.135803,302.932343 
	C490.135803,271.099670 490.135803,239.508987 490.037598,207.458603 
z"/>
<path fill="#E7E8E8" opacity="1.000000" stroke="none" 
	d="
M496.599152,356.779175 
	C494.749451,360.204285 492.914490,363.242828 490.370117,367.456055 
	C492.000214,370.332825 494.584625,374.893799 497.169067,379.454773 
	C496.797119,379.899109 496.425171,380.343414 496.053192,380.787750 
	C494.328857,379.487885 492.314972,378.432648 490.955872,376.824158 
	C489.375305,374.953491 488.194153,372.678894 487.153442,370.434143 
	C485.607727,367.100189 483.754120,364.664612 479.109741,366.602081 
	C479.109741,370.552582 479.109741,374.954285 479.109741,379.648163 
	C476.301208,380.193970 474.299805,380.765656 474.342834,376.955444 
	C474.453461,367.153198 474.379822,357.348846 474.379822,346.624329 
	C479.792542,346.874298 485.102753,346.568787 490.175812,347.523590 
	C494.429626,348.324249 496.713043,351.796082 496.599152,356.779175 
M491.993896,357.238068 
	C491.683899,350.827942 487.626770,348.844238 479.189056,350.928375 
	C479.189056,354.678528 479.189056,358.408325 479.189056,362.391846 
	C484.037994,362.004761 489.250549,363.907440 491.993896,357.238068 
z"/>
<path fill="#F8F9F9" opacity="1.000000" stroke="none" 
	d="
M323.015564,359.021851 
	C323.015594,366.169403 323.015594,372.820801 323.015594,379.738953 
	C321.549347,379.738953 320.325409,379.738953 318.827332,379.738953 
	C318.827332,374.845306 318.827332,370.032501 318.827332,364.882111 
	C313.659668,364.882111 308.748383,364.882111 303.424194,364.882111 
	C303.424194,369.779327 303.424194,374.540710 303.424194,379.634857 
	C301.847778,379.797913 300.636780,379.923157 299.192139,380.072571 
	C299.192139,369.018280 299.192139,358.221802 299.192139,347.073364 
	C300.328064,347.022064 301.556061,346.966644 303.180054,346.893341 
	C303.180054,351.462860 303.180054,355.747437 303.180054,360.413940 
	C308.421814,360.413940 313.291901,360.413940 318.592041,360.413940 
	C318.592041,356.039032 318.592041,351.772827 318.592041,347.113831 
	C320.192505,347.017151 321.397430,346.944397 323.015564,346.846649 
	C323.015564,350.938965 323.015564,354.732330 323.015564,359.021851 
z"/>
<path fill="#F3F4F4" opacity="1.000000" stroke="none" 
	d="
M358.970520,365.994324 
	C358.970520,359.379578 358.970520,353.263062 358.970520,346.700745 
	C366.762878,347.293640 375.123962,344.741791 380.204773,352.655823 
	C384.472260,359.302917 384.305908,366.667114 380.441071,373.455719 
	C375.618561,381.926453 367.170105,379.808655 358.970520,379.978607 
	C358.970520,375.349274 358.970520,370.920898 358.970520,365.994324 
M368.878174,350.307526 
	C367.124146,350.307526 365.370117,350.307526 363.487427,350.307526 
	C363.487427,359.359589 363.487427,367.892090 363.487427,376.386322 
	C372.054077,377.368408 376.420319,374.711304 378.098724,367.874817 
	C379.911163,360.492218 377.164551,351.248535 368.878174,350.307526 
z"/>
<path fill="#F2F3F3" opacity="1.000000" stroke="none" 
	d="
M452.033966,373.924866 
	C452.899963,375.085205 453.726715,376.267944 454.632782,376.332184 
	C457.945587,376.566925 461.299225,376.254669 464.606293,376.526947 
	C465.751038,376.621216 466.804993,377.818481 467.900421,378.511932 
	C467.652008,378.949249 467.403595,379.386536 467.155182,379.823853 
	C460.873718,379.823853 454.592285,379.823853 448.048828,379.823853 
	C448.048828,369.021179 448.048828,358.259369 448.048828,347.144104 
	C454.116028,347.144104 460.343536,347.144104 466.578735,347.144104 
	C466.640137,350.207245 466.640137,350.207336 460.839111,350.207886 
	C458.021820,350.208160 455.204529,350.207947 452.209412,350.207947 
	C452.209412,353.792816 452.209412,357.091187 452.209412,360.792267 
	C455.627136,360.792267 458.928894,360.674438 462.211060,360.876038 
	C463.020416,360.925781 463.765900,362.014832 464.540741,362.626129 
	C463.778900,363.271698 463.051605,364.419037 462.249084,364.474335 
	C459.105347,364.690948 455.937836,364.562866 452.031128,364.562866 
	C452.031128,367.626740 452.031128,370.530334 452.033966,373.924866 
z"/>
<path fill="#E7E8E8" opacity="1.000000" stroke="none" 
	d="
M337.045776,360.030579 
	C341.096832,360.468170 344.884369,360.468170 348.531006,360.468170 
	C350.119080,365.582703 346.764771,364.517792 344.535645,364.601349 
	C342.085754,364.693176 339.629761,364.622284 336.903137,364.622284 
	C336.903137,368.665131 336.903137,372.227692 336.903137,376.039246 
	C341.945435,377.069397 347.568420,375.512146 352.370667,376.993530 
	C352.125336,377.958832 351.879974,378.924103 351.634644,379.889404 
	C345.347046,379.889404 339.059479,379.889404 332.430664,379.889404 
	C332.430664,368.931915 332.430664,358.055084 332.430664,346.754883 
	C337.953003,346.754883 343.427612,346.664398 348.893402,346.843750 
	C349.806580,346.873749 350.681274,348.075928 351.573730,348.736450 
	C350.704956,349.239441 349.852936,350.139099 348.964508,350.176575 
	C345.147247,350.337646 341.319244,350.245361 336.782257,350.245361 
	C336.782257,353.474762 336.782257,356.533844 337.045776,360.030579 
z"/>
<path fill="#F4F5F5" opacity="1.000000" stroke="none" 
	d="
M409.974243,355.085480 
	C409.974243,352.147034 409.974243,349.687195 409.974243,347.021545 
	C411.394836,347.021545 412.486755,347.021545 413.817505,347.021545 
	C413.817505,354.561279 414.188141,362.010315 413.713470,369.405060 
	C413.236908,376.828888 408.818054,380.873169 402.454071,380.826660 
	C395.149536,380.773285 390.557831,376.511658 390.198944,368.732574 
	C389.870728,361.618134 390.129364,354.476624 390.129364,347.076904 
	C391.395630,347.076904 392.617218,347.076904 394.206268,347.076904 
	C394.206268,352.688812 394.147461,358.149933 394.234100,363.608704 
	C394.270813,365.921082 394.492950,368.247040 394.842468,370.534454 
	C395.494537,374.801514 398.214905,377.008148 402.404785,376.897400 
	C406.384491,376.792175 409.044586,374.423767 409.428619,370.478699 
	C409.909760,365.536285 409.818451,360.538177 409.974243,355.085480 
z"/>
<path fill="#E5E6E6" opacity="1.000000" stroke="none" 
	d="
M244.929901,348.951355 
	C251.537628,344.755066 257.316010,345.341553 263.428528,351.792480 
	C260.697754,351.792480 259.238708,352.015594 257.884705,351.733856 
	C256.324219,351.409149 254.686111,349.914520 253.385880,350.220551 
	C251.064056,350.766876 247.981812,351.742676 247.010773,353.519104 
	C245.516327,356.253113 247.856339,358.345551 250.573502,359.516937 
	C252.547562,360.367920 254.458405,361.364410 256.421204,362.242950 
	C262.178009,364.819519 264.179016,368.098663 263.107605,373.270630 
	C262.223694,377.537567 257.293427,381.346954 252.205399,380.683197 
	C248.176163,380.157532 244.309967,378.382263 240.371368,377.161926 
	C240.503983,376.298798 240.636597,375.435669 240.769211,374.572540 
	C242.399216,374.572540 244.069946,374.342438 245.650482,374.622070 
	C248.631485,375.149475 251.586014,376.556061 254.500870,376.429535 
	C256.026794,376.363312 258.338287,373.990479 258.652649,372.345459 
	C258.947479,370.802673 257.510803,368.244598 256.065338,367.205505 
	C253.563263,365.406891 250.388702,364.579071 247.633011,363.090759 
	C241.422318,359.736542 240.445648,354.929352 244.929901,348.951355 
z"/>
<path fill="#E7E8E8" opacity="1.000000" stroke="none" 
	d="
M275.389465,378.772522 
	C264.557495,371.966919 266.368652,351.554901 276.766083,347.469666 
	C282.706085,345.135803 286.585693,345.578430 291.825745,350.370270 
	C291.140656,351.183807 290.448059,352.006256 289.786926,352.791382 
	C282.862213,348.800476 277.192047,349.731964 274.197662,355.174255 
	C270.446045,361.992767 272.814697,373.733063 278.963928,375.858093 
	C281.613251,376.773621 285.082825,375.264130 288.188232,374.936554 
	C289.436829,374.804901 290.708191,374.888458 291.969177,374.874023 
	C291.411072,376.044891 291.168762,377.697083 290.241608,378.305328 
	C285.604523,381.347321 280.702515,381.760620 275.389465,378.772522 
z"/>
<path fill="#F5F6F6" opacity="1.000000" stroke="none" 
	d="
M427.219025,374.190918 
	C429.709747,375.287018 432.167450,375.998169 434.674835,376.395294 
	C436.295013,376.651917 438.064423,376.153595 439.621185,376.556580 
	C440.639343,376.820190 441.396698,378.091278 443.264465,379.842896 
	C435.495209,379.842896 429.557007,379.842896 423.296692,379.842896 
	C423.296692,368.974884 423.296692,358.121307 423.296692,347.074402 
	C424.474457,347.074402 425.686462,347.074402 427.207062,347.074402 
	C427.207062,356.115814 427.207062,364.894287 427.219025,374.190918 
z"/>
<path fill="#282828" opacity="1.000000" stroke="none" 
	d="
M647.457642,253.983063 
	C647.059387,259.747528 646.975464,265.700867 645.349609,271.198212 
	C643.149353,278.638000 639.100647,281.110413 632.390625,280.969727 
	C625.398193,280.823090 620.197571,277.485748 618.213318,270.715637 
	C616.640686,265.349823 615.621094,259.701843 615.279602,254.122650 
	C614.731079,245.160599 614.865845,236.151184 614.939270,227.163666 
	C614.948303,226.058914 616.351929,224.965576 617.555054,223.963318 
	C617.720581,227.293289 618.883362,228.906082 622.431824,229.209030 
	C623.713501,229.318451 624.814453,231.576920 625.992737,232.859451 
	C627.254883,234.233276 628.335205,236.508408 629.807373,236.797058 
	C632.589966,237.342697 633.661011,238.322571 634.198486,241.143860 
	C634.480469,242.624054 636.720825,243.739380 638.093567,245.001221 
	C639.376221,246.180191 641.679260,247.250641 641.786255,248.516541 
	C642.089783,252.107208 643.901184,253.529617 647.457642,253.983063 
z"/>
<path fill="#282828" opacity="1.000000" stroke="none" 
	d="
M411.840485,248.935364 
	C411.895508,225.817932 411.756256,203.189224 412.141327,180.569427 
	C412.238617,174.855087 413.593597,169.054794 415.118988,163.499481 
	C416.991180,156.681152 421.846344,153.385117 428.260101,153.527145 
	C433.986237,153.653946 438.326691,157.019608 439.870697,163.930862 
	C441.417236,170.853455 442.746307,177.982651 442.849091,185.040527 
	C443.174011,207.346954 443.100037,229.666473 442.689209,251.971863 
	C442.568542,258.522736 441.277985,265.160187 439.674438,271.544678 
	C438.123779,277.718719 433.523468,280.811249 427.743164,280.987244 
	C422.448761,281.148499 417.352234,278.238068 415.782410,272.359131 
	C413.789703,264.896454 413.095001,257.087219 411.840485,248.935364 
z"/>
<path fill="#282828" opacity="1.000000" stroke="none" 
	d="
M646.610168,178.581451 
	C646.694580,186.796844 646.694580,194.560333 646.694580,202.571518 
	C635.739014,202.571518 625.524597,202.571518 614.927429,202.571518 
	C614.826965,189.645798 614.345764,176.924469 617.899780,164.501602 
	C619.991089,157.191696 624.476746,153.461075 630.759094,153.527084 
	C637.657898,153.599579 642.528076,157.436142 644.402588,164.917923 
	C645.482544,169.228531 645.841980,173.719681 646.610168,178.581451 
z"/>
<path fill="#2D2D2D" opacity="1.000000" stroke="none" 
	d="
M491.966431,357.654388 
	C489.250549,363.907440 484.037994,362.004761 479.189056,362.391846 
	C479.189056,358.408325 479.189056,354.678528 479.189056,350.928375 
	C487.626770,348.844238 491.683899,350.827942 491.966431,357.654388 
z"/>
<path fill="#303030" opacity="1.000000" stroke="none" 
	d="
M369.270508,350.405212 
	C377.164551,351.248535 379.911163,360.492218 378.098724,367.874817 
	C376.420319,374.711304 372.054077,377.368408 363.487427,376.386322 
	C363.487427,367.892090 363.487427,359.359589 363.487427,350.307526 
	C365.370117,350.307526 367.124146,350.307526 369.270508,350.405212 
z"/>
</svg>